<mxfile host="app.diagrams.net" modified="2023-04-07T23:12:54.728Z" agent="Mozilla/5.0 (Macintosh; Intel Mac OS X 10_15_7) AppleWebKit/537.36 (KHTML, like Gecko) Chrome/111.0.0.0 Safari/537.36" etag="Gz83kwGzFF4hU63PSEFf" version="21.1.5" type="device">
  <diagram name="Page-1" id="UxpYz_SNXPSgmnYh8LzR">
    <mxGraphModel dx="2162" dy="848" grid="1" gridSize="10" guides="1" tooltips="1" connect="1" arrows="1" fold="1" page="1" pageScale="1" pageWidth="850" pageHeight="1100" math="0" shadow="0">
      <root>
        <mxCell id="0" />
        <mxCell id="1" parent="0" />
        <mxCell id="qimSAjwJUehtbm7cnYXm-2" value="Authentication" style="whiteSpace=wrap;html=1;align=center;" vertex="1" parent="1">
          <mxGeometry x="120" y="130" width="100" height="40" as="geometry" />
        </mxCell>
        <mxCell id="qimSAjwJUehtbm7cnYXm-5" style="rounded=0;orthogonalLoop=1;jettySize=auto;html=1;exitX=1;exitY=1;exitDx=0;exitDy=0;endArrow=none;endFill=0;" edge="1" parent="1" source="qimSAjwJUehtbm7cnYXm-3" target="qimSAjwJUehtbm7cnYXm-2">
          <mxGeometry relative="1" as="geometry" />
        </mxCell>
        <mxCell id="qimSAjwJUehtbm7cnYXm-3" value="username" style="ellipse;whiteSpace=wrap;html=1;align=center;fontStyle=4;" vertex="1" parent="1">
          <mxGeometry x="-15" y="60" width="100" height="40" as="geometry" />
        </mxCell>
        <mxCell id="qimSAjwJUehtbm7cnYXm-6" style="rounded=0;orthogonalLoop=1;jettySize=auto;html=1;exitX=0.5;exitY=1;exitDx=0;exitDy=0;entryX=0.5;entryY=0;entryDx=0;entryDy=0;endArrow=none;endFill=0;" edge="1" parent="1" source="qimSAjwJUehtbm7cnYXm-4" target="qimSAjwJUehtbm7cnYXm-2">
          <mxGeometry relative="1" as="geometry" />
        </mxCell>
        <mxCell id="qimSAjwJUehtbm7cnYXm-4" value="password" style="ellipse;whiteSpace=wrap;html=1;align=center;" vertex="1" parent="1">
          <mxGeometry x="110" y="20" width="100" height="40" as="geometry" />
        </mxCell>
        <mxCell id="qimSAjwJUehtbm7cnYXm-7" value="parking_lot_owner" style="whiteSpace=wrap;html=1;align=center;" vertex="1" parent="1">
          <mxGeometry x="500" y="200" width="110" height="40" as="geometry" />
        </mxCell>
        <mxCell id="qimSAjwJUehtbm7cnYXm-14" style="rounded=0;orthogonalLoop=1;jettySize=auto;html=1;exitX=1;exitY=0.5;exitDx=0;exitDy=0;entryX=0.5;entryY=0;entryDx=0;entryDy=0;endArrow=none;endFill=0;" edge="1" parent="1" source="qimSAjwJUehtbm7cnYXm-8" target="qimSAjwJUehtbm7cnYXm-7">
          <mxGeometry relative="1" as="geometry" />
        </mxCell>
        <mxCell id="qimSAjwJUehtbm7cnYXm-8" value="ID" style="ellipse;whiteSpace=wrap;html=1;align=center;" vertex="1" parent="1">
          <mxGeometry x="325" y="130" width="100" height="40" as="geometry" />
        </mxCell>
        <mxCell id="qimSAjwJUehtbm7cnYXm-17" style="rounded=0;orthogonalLoop=1;jettySize=auto;html=1;exitX=1;exitY=0.5;exitDx=0;exitDy=0;entryX=0.5;entryY=0;entryDx=0;entryDy=0;endArrow=none;endFill=0;" edge="1" parent="1" source="qimSAjwJUehtbm7cnYXm-9" target="qimSAjwJUehtbm7cnYXm-7">
          <mxGeometry relative="1" as="geometry" />
        </mxCell>
        <mxCell id="qimSAjwJUehtbm7cnYXm-9" value="username" style="ellipse;whiteSpace=wrap;html=1;align=center;" vertex="1" parent="1">
          <mxGeometry x="370" y="80" width="100" height="40" as="geometry" />
        </mxCell>
        <mxCell id="qimSAjwJUehtbm7cnYXm-20" style="rounded=0;orthogonalLoop=1;jettySize=auto;html=1;exitX=0.5;exitY=1;exitDx=0;exitDy=0;entryX=0.5;entryY=0;entryDx=0;entryDy=0;endArrow=none;endFill=0;" edge="1" parent="1" source="qimSAjwJUehtbm7cnYXm-10" target="qimSAjwJUehtbm7cnYXm-7">
          <mxGeometry relative="1" as="geometry" />
        </mxCell>
        <mxCell id="qimSAjwJUehtbm7cnYXm-10" value="phone_no" style="ellipse;whiteSpace=wrap;html=1;align=center;" vertex="1" parent="1">
          <mxGeometry x="470" y="40" width="100" height="40" as="geometry" />
        </mxCell>
        <mxCell id="qimSAjwJUehtbm7cnYXm-23" style="rounded=0;orthogonalLoop=1;jettySize=auto;html=1;exitX=0.5;exitY=1;exitDx=0;exitDy=0;entryX=0.5;entryY=0;entryDx=0;entryDy=0;endArrow=none;endFill=0;" edge="1" parent="1" source="qimSAjwJUehtbm7cnYXm-11" target="qimSAjwJUehtbm7cnYXm-7">
          <mxGeometry relative="1" as="geometry" />
        </mxCell>
        <mxCell id="qimSAjwJUehtbm7cnYXm-11" value="email_id" style="ellipse;whiteSpace=wrap;html=1;align=center;" vertex="1" parent="1">
          <mxGeometry x="580" y="40" width="100" height="40" as="geometry" />
        </mxCell>
        <mxCell id="qimSAjwJUehtbm7cnYXm-26" style="rounded=0;orthogonalLoop=1;jettySize=auto;html=1;exitX=0;exitY=1;exitDx=0;exitDy=0;entryX=0.5;entryY=0;entryDx=0;entryDy=0;endArrow=none;endFill=0;" edge="1" parent="1" source="qimSAjwJUehtbm7cnYXm-12" target="qimSAjwJUehtbm7cnYXm-7">
          <mxGeometry relative="1" as="geometry" />
        </mxCell>
        <mxCell id="qimSAjwJUehtbm7cnYXm-12" value="address" style="ellipse;whiteSpace=wrap;html=1;align=center;" vertex="1" parent="1">
          <mxGeometry x="670" y="80" width="100" height="40" as="geometry" />
        </mxCell>
        <mxCell id="qimSAjwJUehtbm7cnYXm-27" style="rounded=0;orthogonalLoop=1;jettySize=auto;html=1;exitX=0;exitY=0.5;exitDx=0;exitDy=0;entryX=0.5;entryY=0;entryDx=0;entryDy=0;endArrow=none;endFill=0;" edge="1" parent="1" source="qimSAjwJUehtbm7cnYXm-13" target="qimSAjwJUehtbm7cnYXm-7">
          <mxGeometry relative="1" as="geometry" />
        </mxCell>
        <mxCell id="qimSAjwJUehtbm7cnYXm-13" value="business_id" style="ellipse;whiteSpace=wrap;html=1;align=center;" vertex="1" parent="1">
          <mxGeometry x="700" y="130" width="100" height="40" as="geometry" />
        </mxCell>
        <mxCell id="qimSAjwJUehtbm7cnYXm-29" value="employee" style="whiteSpace=wrap;html=1;align=center;" vertex="1" parent="1">
          <mxGeometry x="-180" y="300" width="100" height="40" as="geometry" />
        </mxCell>
        <mxCell id="qimSAjwJUehtbm7cnYXm-30" value="payment" style="whiteSpace=wrap;html=1;align=center;" vertex="1" parent="1">
          <mxGeometry x="40" y="500" width="100" height="40" as="geometry" />
        </mxCell>
        <mxCell id="qimSAjwJUehtbm7cnYXm-31" value="customers" style="whiteSpace=wrap;html=1;align=center;" vertex="1" parent="1">
          <mxGeometry x="85" y="720" width="100" height="40" as="geometry" />
        </mxCell>
        <mxCell id="qimSAjwJUehtbm7cnYXm-32" value="parking_lots" style="whiteSpace=wrap;html=1;align=center;" vertex="1" parent="1">
          <mxGeometry x="580" y="510" width="100" height="40" as="geometry" />
        </mxCell>
        <mxCell id="qimSAjwJUehtbm7cnYXm-33" value="car_details" style="whiteSpace=wrap;html=1;align=center;" vertex="1" parent="1">
          <mxGeometry x="270" y="380" width="100" height="40" as="geometry" />
        </mxCell>
        <mxCell id="qimSAjwJUehtbm7cnYXm-34" value="department" style="whiteSpace=wrap;html=1;align=center;" vertex="1" parent="1">
          <mxGeometry x="-205" y="680" width="100" height="40" as="geometry" />
        </mxCell>
        <mxCell id="qimSAjwJUehtbm7cnYXm-35" value="support_request" style="whiteSpace=wrap;html=1;align=center;" vertex="1" parent="1">
          <mxGeometry x="550" y="420" width="180" height="40" as="geometry" />
        </mxCell>
        <mxCell id="qimSAjwJUehtbm7cnYXm-36" style="rounded=0;orthogonalLoop=1;jettySize=auto;html=1;exitX=1;exitY=0.5;exitDx=0;exitDy=0;endArrow=none;endFill=0;" edge="1" parent="1" source="qimSAjwJUehtbm7cnYXm-37">
          <mxGeometry relative="1" as="geometry">
            <mxPoint x="-130" y="300" as="targetPoint" />
          </mxGeometry>
        </mxCell>
        <mxCell id="qimSAjwJUehtbm7cnYXm-37" value="resign_date" style="ellipse;whiteSpace=wrap;html=1;align=center;" vertex="1" parent="1">
          <mxGeometry x="-380" y="210" width="100" height="40" as="geometry" />
        </mxCell>
        <mxCell id="qimSAjwJUehtbm7cnYXm-38" style="rounded=0;orthogonalLoop=1;jettySize=auto;html=1;exitX=1;exitY=0.5;exitDx=0;exitDy=0;endArrow=none;endFill=0;" edge="1" parent="1" source="qimSAjwJUehtbm7cnYXm-39">
          <mxGeometry relative="1" as="geometry">
            <mxPoint x="-130" y="300" as="targetPoint" />
          </mxGeometry>
        </mxCell>
        <mxCell id="qimSAjwJUehtbm7cnYXm-39" value="username" style="ellipse;whiteSpace=wrap;html=1;align=center;" vertex="1" parent="1">
          <mxGeometry x="-315" y="160" width="100" height="40" as="geometry" />
        </mxCell>
        <mxCell id="qimSAjwJUehtbm7cnYXm-40" style="rounded=0;orthogonalLoop=1;jettySize=auto;html=1;exitX=0.5;exitY=1;exitDx=0;exitDy=0;endArrow=none;endFill=0;" edge="1" parent="1" source="qimSAjwJUehtbm7cnYXm-41">
          <mxGeometry relative="1" as="geometry">
            <mxPoint x="-130" y="300" as="targetPoint" />
          </mxGeometry>
        </mxCell>
        <mxCell id="qimSAjwJUehtbm7cnYXm-41" value="phone_no" style="ellipse;whiteSpace=wrap;html=1;align=center;" vertex="1" parent="1">
          <mxGeometry x="-215" y="120" width="100" height="40" as="geometry" />
        </mxCell>
        <mxCell id="qimSAjwJUehtbm7cnYXm-42" style="rounded=0;orthogonalLoop=1;jettySize=auto;html=1;exitX=0.5;exitY=1;exitDx=0;exitDy=0;endArrow=none;endFill=0;" edge="1" parent="1" source="qimSAjwJUehtbm7cnYXm-43">
          <mxGeometry relative="1" as="geometry">
            <mxPoint x="-130" y="300" as="targetPoint" />
          </mxGeometry>
        </mxCell>
        <mxCell id="qimSAjwJUehtbm7cnYXm-43" value="email_id" style="ellipse;whiteSpace=wrap;html=1;align=center;" vertex="1" parent="1">
          <mxGeometry x="-105" y="120" width="100" height="40" as="geometry" />
        </mxCell>
        <mxCell id="qimSAjwJUehtbm7cnYXm-44" style="rounded=0;orthogonalLoop=1;jettySize=auto;html=1;exitX=0;exitY=1;exitDx=0;exitDy=0;endArrow=none;endFill=0;" edge="1" parent="1" source="qimSAjwJUehtbm7cnYXm-45">
          <mxGeometry relative="1" as="geometry">
            <mxPoint x="-130" y="300" as="targetPoint" />
          </mxGeometry>
        </mxCell>
        <mxCell id="qimSAjwJUehtbm7cnYXm-45" value="address" style="ellipse;whiteSpace=wrap;html=1;align=center;" vertex="1" parent="1">
          <mxGeometry x="-15" y="160" width="100" height="40" as="geometry" />
        </mxCell>
        <mxCell id="qimSAjwJUehtbm7cnYXm-46" style="rounded=0;orthogonalLoop=1;jettySize=auto;html=1;exitX=0;exitY=0.5;exitDx=0;exitDy=0;entryX=0.5;entryY=0;entryDx=0;entryDy=0;endArrow=none;endFill=0;" edge="1" parent="1" source="qimSAjwJUehtbm7cnYXm-47" target="qimSAjwJUehtbm7cnYXm-29">
          <mxGeometry relative="1" as="geometry">
            <mxPoint x="-130" y="280" as="targetPoint" />
          </mxGeometry>
        </mxCell>
        <mxCell id="qimSAjwJUehtbm7cnYXm-47" value="dept_id" style="ellipse;whiteSpace=wrap;html=1;align=center;" vertex="1" parent="1">
          <mxGeometry x="15" y="210" width="100" height="40" as="geometry" />
        </mxCell>
        <mxCell id="qimSAjwJUehtbm7cnYXm-62" style="rounded=0;orthogonalLoop=1;jettySize=auto;html=1;exitX=1;exitY=0.5;exitDx=0;exitDy=0;endArrow=none;endFill=0;" edge="1" parent="1" source="qimSAjwJUehtbm7cnYXm-48" target="qimSAjwJUehtbm7cnYXm-29">
          <mxGeometry relative="1" as="geometry" />
        </mxCell>
        <mxCell id="qimSAjwJUehtbm7cnYXm-48" value="joining_date" style="ellipse;whiteSpace=wrap;html=1;align=center;" vertex="1" parent="1">
          <mxGeometry x="-415" y="260" width="100" height="40" as="geometry" />
        </mxCell>
        <mxCell id="qimSAjwJUehtbm7cnYXm-55" style="rounded=0;orthogonalLoop=1;jettySize=auto;html=1;exitX=1;exitY=0.5;exitDx=0;exitDy=0;entryX=0;entryY=0.5;entryDx=0;entryDy=0;endArrow=none;endFill=0;" edge="1" parent="1" source="qimSAjwJUehtbm7cnYXm-49" target="qimSAjwJUehtbm7cnYXm-29">
          <mxGeometry relative="1" as="geometry" />
        </mxCell>
        <mxCell id="qimSAjwJUehtbm7cnYXm-49" value="ID" style="ellipse;whiteSpace=wrap;html=1;align=center;" vertex="1" parent="1">
          <mxGeometry x="-415" y="310" width="100" height="40" as="geometry" />
        </mxCell>
        <mxCell id="qimSAjwJUehtbm7cnYXm-54" style="rounded=0;orthogonalLoop=1;jettySize=auto;html=1;exitX=0.5;exitY=1;exitDx=0;exitDy=0;entryX=0.5;entryY=0;entryDx=0;entryDy=0;endArrow=none;endFill=0;" edge="1" parent="1" source="qimSAjwJUehtbm7cnYXm-53" target="qimSAjwJUehtbm7cnYXm-2">
          <mxGeometry relative="1" as="geometry" />
        </mxCell>
        <mxCell id="qimSAjwJUehtbm7cnYXm-53" value="created_at" style="ellipse;whiteSpace=wrap;html=1;align=center;" vertex="1" parent="1">
          <mxGeometry x="250" y="30" width="100" height="40" as="geometry" />
        </mxCell>
        <mxCell id="qimSAjwJUehtbm7cnYXm-67" style="rounded=0;orthogonalLoop=1;jettySize=auto;html=1;exitX=1;exitY=0.5;exitDx=0;exitDy=0;entryX=0;entryY=0.5;entryDx=0;entryDy=0;endArrow=none;endFill=0;" edge="1" parent="1" source="qimSAjwJUehtbm7cnYXm-63" target="qimSAjwJUehtbm7cnYXm-34">
          <mxGeometry relative="1" as="geometry" />
        </mxCell>
        <mxCell id="qimSAjwJUehtbm7cnYXm-63" value="&lt;span style=&quot;border-bottom: 1px dotted&quot;&gt;ID&lt;/span&gt;" style="ellipse;whiteSpace=wrap;html=1;align=center;" vertex="1" parent="1">
          <mxGeometry x="-380" y="680" width="100" height="40" as="geometry" />
        </mxCell>
        <mxCell id="qimSAjwJUehtbm7cnYXm-68" style="rounded=0;orthogonalLoop=1;jettySize=auto;html=1;exitX=1;exitY=0;exitDx=0;exitDy=0;endArrow=none;endFill=0;" edge="1" parent="1" source="qimSAjwJUehtbm7cnYXm-65" target="qimSAjwJUehtbm7cnYXm-34">
          <mxGeometry relative="1" as="geometry" />
        </mxCell>
        <mxCell id="qimSAjwJUehtbm7cnYXm-65" value="&lt;span style=&quot;border-bottom: 1px dotted&quot;&gt;dept_name&lt;/span&gt;" style="ellipse;whiteSpace=wrap;html=1;align=center;" vertex="1" parent="1">
          <mxGeometry x="-360" y="760" width="100" height="40" as="geometry" />
        </mxCell>
        <mxCell id="qimSAjwJUehtbm7cnYXm-69" value="emp_dept" style="whiteSpace=wrap;html=1;align=center;" vertex="1" parent="1">
          <mxGeometry x="-320" y="500" width="100" height="40" as="geometry" />
        </mxCell>
        <mxCell id="qimSAjwJUehtbm7cnYXm-73" style="rounded=0;orthogonalLoop=1;jettySize=auto;html=1;exitX=1;exitY=0.5;exitDx=0;exitDy=0;entryX=0.413;entryY=0;entryDx=0;entryDy=0;entryPerimeter=0;endArrow=none;endFill=0;" edge="1" parent="1" source="qimSAjwJUehtbm7cnYXm-70" target="qimSAjwJUehtbm7cnYXm-69">
          <mxGeometry relative="1" as="geometry" />
        </mxCell>
        <mxCell id="qimSAjwJUehtbm7cnYXm-70" value="&lt;span style=&quot;border-bottom: 1px dotted&quot;&gt;emp_id&lt;/span&gt;" style="ellipse;whiteSpace=wrap;html=1;align=center;" vertex="1" parent="1">
          <mxGeometry x="-475" y="420" width="100" height="40" as="geometry" />
        </mxCell>
        <mxCell id="qimSAjwJUehtbm7cnYXm-74" style="rounded=0;orthogonalLoop=1;jettySize=auto;html=1;exitX=1;exitY=0.5;exitDx=0;exitDy=0;entryX=0;entryY=0.5;entryDx=0;entryDy=0;endArrow=none;endFill=0;" edge="1" parent="1" source="qimSAjwJUehtbm7cnYXm-71" target="qimSAjwJUehtbm7cnYXm-69">
          <mxGeometry relative="1" as="geometry" />
        </mxCell>
        <mxCell id="qimSAjwJUehtbm7cnYXm-71" value="&lt;span style=&quot;border-bottom: 1px dotted&quot;&gt;dept_id&lt;/span&gt;" style="ellipse;whiteSpace=wrap;html=1;align=center;" vertex="1" parent="1">
          <mxGeometry x="-500" y="500" width="100" height="40" as="geometry" />
        </mxCell>
        <mxCell id="qimSAjwJUehtbm7cnYXm-75" style="rounded=0;orthogonalLoop=1;jettySize=auto;html=1;exitX=1;exitY=0.5;exitDx=0;exitDy=0;entryX=0.5;entryY=1;entryDx=0;entryDy=0;endArrow=none;endFill=0;" edge="1" parent="1" source="qimSAjwJUehtbm7cnYXm-72" target="qimSAjwJUehtbm7cnYXm-69">
          <mxGeometry relative="1" as="geometry" />
        </mxCell>
        <mxCell id="qimSAjwJUehtbm7cnYXm-72" value="&lt;span style=&quot;border-bottom: 1px dotted&quot;&gt;role&lt;br&gt;&lt;/span&gt;" style="ellipse;whiteSpace=wrap;html=1;align=center;" vertex="1" parent="1">
          <mxGeometry x="-480" y="580" width="100" height="40" as="geometry" />
        </mxCell>
        <mxCell id="qimSAjwJUehtbm7cnYXm-76" value="ID" style="ellipse;whiteSpace=wrap;html=1;align=center;" vertex="1" parent="1">
          <mxGeometry x="-105" y="790" width="100" height="40" as="geometry" />
        </mxCell>
        <mxCell id="qimSAjwJUehtbm7cnYXm-77" value="advertisers" style="whiteSpace=wrap;html=1;align=center;" vertex="1" parent="1">
          <mxGeometry x="630" y="350" width="100" height="40" as="geometry" />
        </mxCell>
        <mxCell id="qimSAjwJUehtbm7cnYXm-78" value="name" style="ellipse;whiteSpace=wrap;html=1;align=center;" vertex="1" parent="1">
          <mxGeometry x="-30" y="840" width="100" height="40" as="geometry" />
        </mxCell>
        <mxCell id="qimSAjwJUehtbm7cnYXm-79" value="email_id" style="ellipse;whiteSpace=wrap;html=1;align=center;" vertex="1" parent="1">
          <mxGeometry x="85" y="860" width="100" height="40" as="geometry" />
        </mxCell>
        <mxCell id="qimSAjwJUehtbm7cnYXm-80" value="phone_no" style="ellipse;whiteSpace=wrap;html=1;align=center;" vertex="1" parent="1">
          <mxGeometry x="210" y="840" width="100" height="40" as="geometry" />
        </mxCell>
        <mxCell id="qimSAjwJUehtbm7cnYXm-81" value="business_id" style="ellipse;whiteSpace=wrap;html=1;align=center;" vertex="1" parent="1">
          <mxGeometry x="280" y="790" width="100" height="40" as="geometry" />
        </mxCell>
        <mxCell id="qimSAjwJUehtbm7cnYXm-83" value="business" style="whiteSpace=wrap;html=1;align=center;" vertex="1" parent="1">
          <mxGeometry x="630" y="630" width="100" height="40" as="geometry" />
        </mxCell>
        <mxCell id="qimSAjwJUehtbm7cnYXm-84" value="ID" style="ellipse;whiteSpace=wrap;html=1;align=center;" vertex="1" parent="1">
          <mxGeometry x="425" y="720" width="100" height="40" as="geometry" />
        </mxCell>
        <mxCell id="qimSAjwJUehtbm7cnYXm-85" value="name" style="ellipse;whiteSpace=wrap;html=1;align=center;" vertex="1" parent="1">
          <mxGeometry x="530" y="740" width="100" height="40" as="geometry" />
        </mxCell>
        <mxCell id="qimSAjwJUehtbm7cnYXm-87" value="contact_no" style="ellipse;whiteSpace=wrap;html=1;align=center;" vertex="1" parent="1">
          <mxGeometry x="650" y="750" width="100" height="40" as="geometry" />
        </mxCell>
        <mxCell id="qimSAjwJUehtbm7cnYXm-88" value="address" style="ellipse;whiteSpace=wrap;html=1;align=center;" vertex="1" parent="1">
          <mxGeometry x="750" y="720" width="100" height="40" as="geometry" />
        </mxCell>
      </root>
    </mxGraphModel>
  </diagram>
</mxfile>
